<svg xmlns="http://www.w3.org/2000/svg" viewBox="0 0 629.47 760.93" role="img" aria-label="ALTA">
  <title>ALTA</title>
  <g transform="translate(-2315.28 -258.16)">
  <path fill="#eb1c24" d="M 2863.046875 838.085938 L 2529.277344 838.011719 L 2529.277344 904.46875 C 2529.277344 967.785156 2580.515625 1019.046875 2643.816406 1019.085938 L 2738.972656 1019.085938 C 2852.433594 1019.085938 2944.746094 926.773438 2944.746094 813.375 L 2944.746094 803.738281 C 2924.257812 824.726562 2895.527344 838.085938 2863.046875 838.085938 "/>
  <path fill="#ef5a28" d="M 2832.84375 452.488281 C 2816.203125 442.875 2782.261719 423.292969 2753.617188 406.75 C 2760.195312 423.515625 2763.691406 441.496094 2763.691406 459.992188 L 2763.691406 805.152344 L 2863.054688 805.152344 C 2885.183594 805.152344 2905.769531 796.453125 2921.234375 780.691406 C 2934.226562 767.296875 2942.472656 749.691406 2944.300781 731.410156 C 2944.476562 728.792969 2944.753906 726.136719 2944.753906 723.429688 L 2944.753906 646.316406 C 2944.753906 567.753906 2900.832031 491.71875 2832.84375 452.488281 "/>
  <path fill="#f5911e" d="M 2730.835938 459.65625 C 2730.835938 417.894531 2708.421875 381.542969 2675.027344 361.40625 C 2610.621094 324.167969 2496.347656 258.160156 2496.347656 258.160156 C 2405.839844 414.925781 2549.949219 498.136719 2549.949219 498.136719 L 2730.835938 602.566406 Z M 2730.835938 459.65625 "/>
  <path fill="#652d8f" d="M 2339.703125 712 C 2377.40625 690.234375 2581.789062 572.238281 2597.074219 563.414062 L 2533.496094 526.6875 C 2531.753906 525.675781 2489.855469 501.164062 2461.109375 454.175781 C 2458.089844 449.101562 2455.070312 443.703125 2452.339844 437.960938 C 2443.28125 443.238281 2433.945312 448.589844 2427.253906 452.433594 C 2359.289062 491.679688 2315.28125 567.703125 2315.28125 646.277344 L 2315.28125 730.746094 C 2322.425781 723.613281 2330.558594 717.300781 2339.703125 712 "/>
  <path fill="#8f278d" d="M 2496.347656 904.503906 L 2496.347656 659.601562 C 2496.347656 659.601562 2391.21875 720.234375 2356.171875 740.460938 C 2330.558594 755.296875 2315.285156 781.808594 2315.285156 811.492188 L 2315.285156 813.347656 C 2315.285156 926.773438 2407.597656 1019.058594 2521.058594 1019.058594 L 2551.332031 1019.058594 C 2517.835938 992.015625 2496.347656 950.742188 2496.347656 904.503906 "/>
  </g>
</svg>
